<?xml version="1.0" encoding="utf-8"?>
<!-- Generator: Adobe Illustrator 22.1.0, SVG Export Plug-In . SVG Version: 6.00 Build 0)  -->
<svg version="1.1" id="Layer_1" xmlns="http://www.w3.org/2000/svg" xmlns:xlink="http://www.w3.org/1999/xlink" x="0px" y="0px"
	 viewBox="0 0 8.3 17.8" style="enable-background:new 0 0 8.3 17.8;" xml:space="preserve">
<style type="text/css">
	.st0{fill:#FFFFFF;}
</style>
<path class="st0" d="M5.5,5.3V3.9c0-0.7,0.5-0.9,0.8-0.9h2V0L5.5,0c-3,0-3.7,2.3-3.7,3.7v1.6H0v3.6h1.8v8.9h3.6V8.9H8l0.3-3.6H5.5z"
	/>
<path class="st0" d="M5.5,5.3V3.9c0-0.7,0.5-0.9,0.8-0.9h2V0L5.5,0c-3,0-3.7,2.3-3.7,3.7v1.6H0v3.6h1.8v8.9h3.6V8.9H8l0.3-3.6H5.5z"
	/>
</svg>
