<?xml version="1.0" encoding="utf-8"?>
<!-- Generator: Adobe Illustrator 22.1.0, SVG Export Plug-In . SVG Version: 6.00 Build 0)  -->
<svg version="1.1" id="Layer_1" xmlns="http://www.w3.org/2000/svg" xmlns:xlink="http://www.w3.org/1999/xlink" x="0px" y="0px"
	 viewBox="0 0 110.7 45.2" style="enable-background:new 0 0 110.7 45.2;" xml:space="preserve">
<style type="text/css">
	.st0{fill:#F99130;}
</style>
<g>
	<path class="st0" d="M100.8,42.1c-3.9,0-7-3.2-7-7h-2.9c0,5.5,4.5,10,10,10s10-4.5,10-10h-2.9C107.8,39,104.7,42.1,100.8,42.1"/>
	<path class="st0" d="M0,1.4c0,0.8,0.6,1.4,1.4,1.4h58.3V0H1.4C0.6,0,0,0.6,0,1.4"/>
	<path class="st0" d="M13.9,11L13.9,11L13.9,11L13.9,11c0-3.2-2.6-5.7-5.7-5.7c-3.1,0-5.7,2.5-5.7,5.6h0v0v0h0h2.8h0c0,0,0,0,0,0
		c0-1.6,1.3-2.8,2.9-2.8C9.8,8.2,11,9.5,11,11c0,1.6-1.3,2.8-2.9,2.8v0.1l0,0c-3.1,0-5.7,2.6-5.7,5.7v19.9c0,3.1,2.6,5.7,5.7,5.7
		s5.7-2.6,5.7-5.7v-20c0-1.7-0.8-3.2-2-4.3C13.1,14.3,13.9,12.7,13.9,11 M11,39.5c0,1.6-1.3,2.9-2.9,2.9s-2.9-1.3-2.9-2.9V19.6
		c0-1.6,1.3-2.9,2.9-2.9S11,18,11,19.6V39.5z"/>
	<path class="st0" d="M50.9,11L50.9,11L50.9,11L50.9,11c0-3.2-2.6-5.7-5.7-5.7c-3.1,0-5.7,2.5-5.7,5.6h0v0v0h0h2.8l0,0c0,0,0,0,0,0
		c0-1.6,1.3-2.8,2.9-2.8c1.6,0,2.8,1.3,2.9,2.8c0,1.6-1.3,2.8-2.9,2.8v0.1c-3.1,0-5.7,2.6-5.7,5.7v19.9c0,3.1,2.6,5.7,5.7,5.7
		c3.1,0,5.7-2.6,5.7-5.7v-20c0-1.7-0.8-3.2-2-4.3C50.1,14.3,50.9,12.7,50.9,11 M48.1,39.5c0,1.6-1.3,2.9-2.9,2.9
		c-1.6,0-2.9-1.3-2.9-2.9V19.6c0-1.6,1.3-2.9,2.9-2.9c1.6,0,2.9,1.3,2.9,2.9V39.5z"/>
	<path class="st0" d="M31,14.2c-1.7,0-3.2,0.7-4.3,1.9c-1-1.2-2.6-1.9-4.3-1.9c-3.1,0-5.7,2.6-5.7,5.7v25.3h2.8V19.9
		c0-1.6,1.3-2.9,2.9-2.9c1.5,0,2.8,1.2,2.9,2.7c0,0.1,0,0.1,0,0.2v2.9h2.8v-2.9h0c0-0.1,0-0.1,0-0.2c0.1-1.5,1.3-2.7,2.9-2.7
		c1.6,0,2.9,1.3,2.9,2.9h0v25.3h2.8V19.9h0C36.7,16.8,34.1,14.2,31,14.2"/>
	<path class="st0" d="M82.1,14.1c-1.7,0-3.2,0.7-4.3,1.9c-1-1.2-2.6-1.9-4.3-1.9c-1,0-2,0.3-2.9,0.8V5.7c0-1.6,1.3-2.9,2.9-2.9v0
		h37.2V0H73.2v0c-3,0.2-5.4,2.7-5.4,5.7v14.1V20v25.2h2.8V20v-0.2c0-1.6,1.3-2.9,2.9-2.9c1.5,0,2.8,1.2,2.8,2.7c0,0.1,0,0.1,0,0.2
		v2.8h2.8v-2.8h0c0-0.1,0-0.1,0-0.2c0.1-1.5,1.3-2.7,2.8-2.7c1.6,0,2.9,1.3,2.9,2.9h0v25.5h2.8V19.8h0
		C87.8,16.6,85.3,14.1,82.1,14.1"/>
	<path class="st0" d="M103.3,15.3c0.7,0,1.2-0.6,1.2-1.2V7.9H102v6.2C102,14.8,102.6,15.3,103.3,15.3"/>
	<rect x="90.8" y="14.9" class="st0" width="2.8" height="20.4"/>
	<rect x="107.9" y="15.2" class="st0" width="2.8" height="20.1"/>
	<path class="st0" d="M65.2,19.4h-2.8V5.8h0c0,0,0,0,0-0.1c0-1.6-1.3-2.8-2.8-2.8V0c3.2,0,5.7,2.6,5.7,5.7c0,0,0,0.1,0,0.1V19.4z"/>
	<path class="st0" d="M65.2,12.4h-2.8v27.1h0c0,0,0,0,0,0.1c0,1.6-1.3,2.8-2.8,2.8c-1.6,0-2.8-1.3-2.8-2.8v-0.1v-2.8v-2.8v-0.1h-2.9
		v0.1v2.8v1.6v1.3v0.1c0,3.1,2.6,5.7,5.7,5.7c3.2,0,5.7-2.6,5.7-5.7c0,0,0-0.1,0-0.1V12.4z"/>
	<path class="st0" d="M99.5,5.4c-4.9,0.6-8.7,4.8-8.7,9.9h2.9c0-3.5,2.5-6.4,5.8-6.9V5.4z"/>
	<path class="st0" d="M102,5.4v3c3.3,0.6,5.8,3.5,5.8,6.9h2.9C110.7,10.2,106.9,6,102,5.4"/>
</g>
</svg>
