<?xml version="1.0" encoding="utf-8"?>
<!-- Generator: Adobe Illustrator 22.0.0, SVG Export Plug-In . SVG Version: 6.00 Build 0)  -->
<svg version="1.1" id="Layer_1" xmlns="http://www.w3.org/2000/svg" xmlns:xlink="http://www.w3.org/1999/xlink" x="0px" y="0px"
	 viewBox="0 0 45.2 110.7" style="enable-background:new 0 0 45.2 110.7;" xml:space="preserve">
<style type="text/css">
	.st0{fill:#F99130;}
</style>
<g>
	<path class="st0" d="M42.1,10c0,3.9-3.2,7-7,7v2.9c5.5,0,10-4.5,10-10s-4.5-10-10-10v2.9C39,2.9,42.1,6.1,42.1,10"/>
	<path class="st0" d="M1.4,110.7c0.8,0,1.4-0.6,1.4-1.4V51.1H0v58.3C0,110.1,0.6,110.7,1.4,110.7"/>
	<path class="st0" d="M11,96.9L11,96.9L11,96.9L11,96.9c-3.2,0-5.7,2.6-5.7,5.7c0,3.1,2.5,5.7,5.6,5.7v0h0h0v0v-2.8v0c0,0,0,0,0,0
		c-1.6,0-2.8-1.3-2.8-2.9c0-1.6,1.3-2.8,2.8-2.9c1.6,0,2.8,1.3,2.8,2.9h0.1l0,0c0,3.1,2.6,5.7,5.7,5.7h19.9c3.1,0,5.7-2.6,5.7-5.7
		c0-3.1-2.6-5.7-5.7-5.7h-20c-1.7,0-3.2,0.8-4.3,2C14.3,97.6,12.7,96.9,11,96.9 M39.5,99.7c1.6,0,2.9,1.3,2.9,2.9s-1.3,2.9-2.9,2.9
		H19.6c-1.6,0-2.9-1.3-2.9-2.9s1.3-2.9,2.9-2.9H39.5z"/>
	<path class="st0" d="M11,59.8L11,59.8L11,59.8L11,59.8c-3.2,0-5.7,2.6-5.7,5.7c0,3.1,2.5,5.7,5.6,5.7v0h0h0v0v-2.8l0,0c0,0,0,0,0,0
		c-1.6,0-2.8-1.3-2.8-2.9c0-1.6,1.3-2.8,2.8-2.9c1.6,0,2.8,1.3,2.8,2.9h0.1c0,3.1,2.6,5.7,5.7,5.7h19.9c3.1,0,5.7-2.6,5.7-5.7
		c0-3.1-2.6-5.7-5.7-5.7h-20c-1.7,0-3.2,0.8-4.3,2C14.3,60.6,12.7,59.9,11,59.8 M39.5,62.7c1.6,0,2.9,1.3,2.9,2.9
		c0,1.6-1.3,2.9-2.9,2.9H19.6c-1.6,0-2.9-1.3-2.9-2.9c0-1.6,1.3-2.9,2.9-2.9H39.5z"/>
	<path class="st0" d="M14.2,79.8c0,1.7,0.7,3.2,1.9,4.3c-1.2,1-1.9,2.6-1.9,4.3c0,3.1,2.6,5.7,5.7,5.7h25.3v-2.8H19.9
		c-1.6,0-2.9-1.3-2.9-2.9c0-1.5,1.2-2.8,2.7-2.9c0.1,0,0.1,0,0.2,0h2.8v-2.8h-2.8v0c-0.1,0-0.1,0-0.2,0c-1.5-0.1-2.7-1.3-2.7-2.9
		c0-1.6,1.3-2.9,2.9-2.9v0h25.3v-2.8H19.9v0C16.8,74.1,14.2,76.6,14.2,79.8"/>
	<path class="st0" d="M14.1,28.6c0,1.7,0.7,3.2,1.9,4.3c-1.2,1-1.9,2.6-1.9,4.3c0,1,0.3,2,0.8,2.9H5.7c-1.6,0-2.9-1.3-2.9-2.9h0V0H0
		v37.5h0c0.2,3,2.7,5.4,5.7,5.4h14.1H20h25.2V40H20h-0.2c-1.6,0-2.9-1.3-2.9-2.9c0-1.5,1.2-2.8,2.7-2.8c0.1,0,0.1,0,0.2,0h2.8v-2.8
		h-2.8v0c-0.1,0-0.1,0-0.2,0c-1.5-0.1-2.7-1.3-2.7-2.8c0-1.6,1.3-2.9,2.9-2.9v0h25.5v-2.8H19.8v0C16.6,22.9,14.1,25.5,14.1,28.6"/>
	<path class="st0" d="M15.3,7.5c0-0.7-0.6-1.2-1.2-1.2H7.9v2.5h6.2C14.8,8.7,15.3,8.2,15.3,7.5"/>
	<rect x="14.9" y="17.1" class="st0" width="20.4" height="2.8"/>
	<rect x="15.2" class="st0" width="20.1" height="2.8"/>
	<path class="st0" d="M19.4,45.6v2.8H5.8v0c0,0,0,0-0.1,0c-1.6,0-2.8,1.3-2.8,2.8H0c0-3.2,2.6-5.7,5.7-5.7c0.1,0,0.1,0,0.1,0H19.4z"
		/>
	<path class="st0" d="M12.4,45.6v2.8h27.1v0c0,0,0,0,0.1,0c1.6,0,2.8,1.3,2.8,2.8c0,1.6-1.3,2.8-2.8,2.8h-0.1h-2.8h-2.8h-0.1V57h0.1
		h2.8h1.6h1.3h0.1c3.1,0,5.7-2.6,5.7-5.7c0-3.2-2.6-5.7-5.7-5.7c0,0-0.1,0-0.1,0H12.4z"/>
	<path class="st0" d="M5.4,11.2c0.6,4.9,4.8,8.7,9.9,8.7V17c-3.5,0-6.3-2.5-6.9-5.8H5.4z"/>
	<path class="st0" d="M5.4,8.7h3c0.6-3.3,3.5-5.8,6.9-5.8V0C10.2,0,6,3.8,5.4,8.7"/>
</g>
</svg>
