<?xml version="1.0" encoding="utf-8"?>
<!-- Generator: Adobe Illustrator 22.1.0, SVG Export Plug-In . SVG Version: 6.00 Build 0)  -->
<svg version="1.1" id="Layer_1" xmlns="http://www.w3.org/2000/svg" xmlns:xlink="http://www.w3.org/1999/xlink" x="0px" y="0px"
	 viewBox="0 0 10.1 17.8" style="enable-background:new 0 0 10.1 17.8;" xml:space="preserve">
<style type="text/css">
	.st0{fill:#FFFFFF;}
</style>
<path class="st0" d="M8.8,0H1.3C0.6,0,0,0.6,0,1.3v15.2c0,0.7,0.6,1.3,1.3,1.3h7.5c0.7,0,1.3-0.6,1.3-1.3V1.3C10.1,0.6,9.5,0,8.8,0
	 M3.2,0.8h3.7C7,0.8,7,0.9,7,1.1C7,1.3,7,1.4,6.9,1.4H3.2C3.1,1.4,3,1.3,3,1.1C3,0.9,3.1,0.8,3.2,0.8 M5,16.5
	c-0.5,0-0.8-0.4-0.8-0.8c0-0.5,0.4-0.8,0.8-0.8c0.5,0,0.8,0.4,0.8,0.8C5.9,16.1,5.5,16.5,5,16.5 M9.1,13.7H1V2.2h8.1V13.7z"/>
</svg>
